<svg width="1008" height="630" viewBox="0 0 1008 630" fill="none" xmlns="http://www.w3.org/2000/svg">
<g clip-path="url(#clip0_445_7)">
<path d="M270.151 227.045C222.342 227.045 186.712 242.831 165.965 270.794V145.872H0V475.106H201.527C219.208 480.96 239.706 484.127 262.934 484.127C354.491 484.127 404.555 434.064 404.555 359.195V351.978C404.555 277.108 354.491 227.045 270.151 227.045ZM202.498 328.525C228.205 328.525 238.58 338.448 238.58 355.585C238.58 372.725 228.205 382.648 202.498 382.648C176.789 382.648 165.965 372.273 165.965 355.585C165.965 338.898 176.337 328.525 202.498 328.525Z" fill="black"/>
<path d="M415.132 351.978C415.132 282.971 471.057 227.045 615.386 227.045C759.712 227.045 805.265 274.402 816.089 342.957H647.858C644.251 333.937 636.132 327.172 615.386 327.172C591.481 327.172 580.655 337.545 580.655 355.586C580.655 373.626 591.481 384.001 615.386 384.001C636.132 384.001 644.251 377.236 647.858 368.214H816.541C805.717 436.77 756.103 484.128 615.386 484.128C474.666 484.128 415.132 428.2 415.132 359.195V351.978Z" fill="black"/>
<path d="M818.044 427.752H1009.72V472.852H818.044V427.752Z" fill="black"/>
</g>
<defs>
<clipPath id="clip0_445_7">
<rect width="1008" height="630" fill="white"/>
</clipPath>
</defs>
</svg>
