<svg width="667" height="1000" viewBox="0 0 667 1000" fill="none" xmlns="http://www.w3.org/2000/svg">
<g clip-path="url(#clip0_447_14)">
<path d="M166.783 1000C258.811 1000 333.5 925.333 333.5 833.333V666.667H166.783C74.7557 666.667 0.0666504 741.333 0.0666504 833.333C0.0666504 925.333 74.7557 1000 166.783 1000Z" fill="#0ACF83"/>
<path d="M0.0666504 500C0.0666504 408 74.7557 333.333 166.783 333.333H333.5V666.667H166.783C74.7557 666.667 0.0666504 592 0.0666504 500Z" fill="#A259FF"/>
<path d="M0.0666504 166.667C0.0666504 74.6667 74.7557 0 166.783 0H333.5V333.333H166.783C74.7557 333.333 0.0666504 258.667 0.0666504 166.667Z" fill="#F24E1E"/>
<path d="M333.5 0H500.217C592.244 0 666.933 74.6667 666.933 166.667C666.933 258.667 592.244 333.333 500.217 333.333H333.5V0Z" fill="#FF7262"/>
<path d="M666.933 500C666.933 592 592.244 666.667 500.217 666.667C408.189 666.667 333.5 592 333.5 500C333.5 408 408.189 333.333 500.217 333.333C592.244 333.333 666.933 408 666.933 500Z" fill="#1ABCFE"/>
</g>
<defs>
<clipPath id="clip0_447_14">
<rect width="667" height="1000" fill="white"/>
</clipPath>
</defs>
</svg>
