<svg width="835" height="751" viewBox="0 0 835 751" fill="none" xmlns="http://www.w3.org/2000/svg">
<path fill-rule="evenodd" clip-rule="evenodd" d="M583.465 102.96H679.544C765 102.96 834.386 172.315 834.386 257.745V595.475C834.386 680.904 765 750.269 679.544 750.269H671.974C627.991 743.385 608.912 730.205 594.175 719.059L472.026 618.652C468.962 616.187 465.148 614.843 461.215 614.843C457.282 614.843 453.468 616.187 450.404 618.652L410.711 651.273L298.947 559.398C295.887 556.929 292.073 555.583 288.14 555.583C284.208 555.583 280.394 556.929 277.333 559.398L122.053 695.953C90.807 721.366 70.1316 716.674 56.7281 715.201C22.1053 686.789 0 643.697 0 595.475V257.745C0 172.315 69.386 102.96 154.851 102.96H250.711L250.544 103.345L247.307 112.764L246.307 115.991L241.956 135.283L241.351 138.668L239.447 157.987L239.193 163.292L239.149 165.151L239.333 174.008L239.772 179.199L240.842 187.328L242.219 194.642L243.842 201.385L245.956 208.673L251.447 224.115L253.254 228.754L262.807 248.923L266.184 255.123L277.228 274.082L281.456 280.922L296.877 303.617L299.096 306.625L319.158 332.722L325.64 340.755L348.553 367.527L353.254 372.684L372.14 392.993L379.614 400.728L391.974 413.005L389.491 415.074L387.947 416.468C383.754 420.379 379.772 424.536 376.044 428.903C374.246 431.017 372.535 433.2 370.921 435.445C368.448 438.88 366.234 442.494 364.298 446.257C363.315 448.211 362.431 450.213 361.649 452.256C359.64 457.484 358.43 462.986 358.061 468.575L357.991 473.398C358.167 480.203 359.553 486.92 362.088 493.243C364.649 499.645 368.395 505.52 373.123 510.545C376.561 514.201 380.474 517.393 384.763 520.015C388.404 522.252 392.298 524.084 396.342 525.487C405.135 528.468 414.464 529.53 423.702 528.601H423.754C431.635 527.834 439.294 525.559 446.316 521.901C449.342 520.296 452.228 518.437 454.93 516.324C462.67 510.302 468.668 502.33 472.307 493.225C475.158 486.122 476.544 478.528 476.43 470.89L476.202 466.9C475.687 461.626 474.429 456.45 472.465 451.528C471.609 449.386 470.643 447.29 469.57 445.249C467.565 441.495 465.287 437.893 462.754 434.472C461.597 432.905 460.398 431.37 459.158 429.868C455.033 424.947 450.594 420.298 445.868 415.951L442.526 413.101L448.184 407.515L472.509 382.119L480.93 372.885L494.009 358.171L502.509 348.226L514.649 333.459L522.86 323.129L534.921 307.011L541.009 298.671L549.649 285.754L556.842 274.749L570.404 251.151L578.149 235.673L578.377 235.191L584.316 220.827L584.517 220.257L590.903 200.324L591.579 197.422L594.351 181.549L594.895 177.253L595.053 174.622L595.246 164.686L595.193 162.836L594.684 153.935L594.061 147.025L590.903 127.101C590.862 126.835 590.803 126.571 590.728 126.312L586.675 111.58L585.289 107.485L583.465 102.96ZM629.14 524.119C619.466 524.295 610.237 528.215 603.395 535.055C596.553 541.895 592.632 551.121 592.456 560.792C592.638 570.461 596.562 579.682 603.403 586.519C610.243 593.356 619.469 597.277 629.14 597.456C638.812 597.275 648.037 593.354 654.879 586.518C661.72 579.681 665.647 570.461 665.833 560.792C665.553 540.781 649.158 524.4 629.14 524.119Z" fill="url(#paint0_radial_448_12)"/>
<path fill-rule="evenodd" clip-rule="evenodd" d="M362.228 737.08L355.754 742.526C349.764 747.455 342.267 750.188 334.509 750.269H154.851C119.064 750.312 84.3763 737.915 56.728 715.201C70.1315 716.665 90.807 721.366 122.053 695.952L277.333 559.398C280.394 556.929 284.208 555.583 288.14 555.583C292.073 555.583 295.887 556.929 298.947 559.398L410.71 651.273L450.403 618.652C453.467 616.187 457.282 614.843 461.215 614.843C465.148 614.843 468.962 616.187 472.026 618.652L594.175 719.059C608.912 730.205 627.991 743.385 671.974 750.269H590.71C583.532 750.181 576.559 747.857 570.763 743.622L569.342 742.526L563.307 737.519C562.829 736.927 562.295 736.383 561.71 735.896C554.877 730.179 468.333 658.499 468.333 658.499C466.502 656.982 464.198 656.154 461.82 656.159C459.442 656.164 457.141 657.001 455.316 658.525C455.316 658.525 455.535 658.788 363.456 735.896C363.019 736.262 362.609 736.657 362.228 737.08ZM629.14 524.119C619.466 524.295 610.237 528.215 603.395 535.055C596.553 541.895 592.632 551.121 592.456 560.792C592.638 570.461 596.562 579.682 603.403 586.519C610.243 593.356 619.469 597.277 629.14 597.456C638.812 597.275 648.037 593.354 654.879 586.518C661.72 579.681 665.647 570.461 665.833 560.792C665.553 540.781 649.158 524.4 629.14 524.119ZM391.974 413.004L379.614 400.728L372.14 392.993L353.254 372.684L348.553 367.527L325.64 340.755L319.158 332.722L299.096 306.625L296.877 303.617L281.456 280.922L277.228 274.082L266.184 255.123L262.807 248.923L253.254 228.754L251.447 224.115L245.956 208.673L243.842 201.385L242.219 194.642L240.842 187.328L239.772 179.199L239.333 174.008L239.149 165.151L239.193 163.292L239.447 157.986L241.351 138.668L241.956 135.283L246.307 115.991L247.307 112.764L250.544 103.345L251.579 100.908L256.719 89.604L260.289 82.878L265.254 74.6963L270.21 67.4003L273.737 62.7614L277.798 57.8682L282.272 52.9486L286.096 49.0989L295.43 40.8909L302.246 35.3137C302.412 35.1734 302.588 35.0506 302.754 34.9278L310.825 29.4734L317.237 25.3869L329.412 18.9766C329.596 18.8626 329.807 18.7749 330 18.6872L347.272 11.5228L348.868 10.9177L364.21 6.42785L370.693 4.98092L379.456 3.21831L385.263 2.33262L394.175 1.22769L400.254 0.692769L412.316 0.0526154L417.044 0L426 0.184154L428.325 0.315692L441.289 1.39431L458.447 3.80585L460.43 4.22677L477.377 8.44477L482.36 9.92677L487.886 11.8385L494.623 14.3815L499.956 16.644L507.781 20.3271L512.71 22.8614L521.57 28.0615L524.868 30.096L536.956 38.9091L540.421 41.9169L548.842 49.59L549.263 50.0022L556.403 57.6665L558.868 60.4375L567.246 71.5745L568.956 74.2315L575.614 85.4737L577.614 89.3234L581.368 97.7068L585.289 107.484L586.675 111.58L590.728 126.312C590.798 126.575 590.86 126.838 590.903 127.101L594.061 147.025L594.684 153.935L595.193 162.836L595.246 164.686L595.053 174.622L594.895 177.252L594.351 181.549L591.579 197.422L590.903 200.324L584.517 220.257C584.455 220.449 584.388 220.639 584.316 220.827L578.377 235.191L578.149 235.673L570.403 251.151L556.842 274.749L549.649 285.754L541.009 298.671L534.921 307.011L522.86 323.129L514.649 333.45L502.509 348.226L494.009 358.17L480.93 372.885L472.509 382.119L448.184 407.515L442.526 413.101L445.868 415.951C450.596 420.296 455.036 424.945 459.158 429.868C460.403 431.367 461.596 432.902 462.754 434.472C465.289 437.892 467.561 441.496 469.57 445.249C470.64 447.283 471.605 449.388 472.465 451.528C474.426 456.451 475.684 461.626 476.202 466.9L476.43 470.89C476.551 478.535 475.15 486.127 472.307 493.225C468.668 502.33 462.67 510.302 454.93 516.324C452.228 518.432 449.346 520.299 446.316 521.901C439.294 525.559 431.635 527.834 423.754 528.6H423.702C414.464 529.53 405.134 528.468 396.342 525.487C392.297 524.085 388.414 522.251 384.763 520.015C380.476 517.395 376.56 514.209 373.123 510.545C368.394 505.518 364.651 499.649 362.088 493.243C359.554 486.924 358.167 480.204 357.991 473.398L358.061 468.575C358.43 462.989 359.64 457.482 361.649 452.256C362.43 450.204 363.316 448.204 364.298 446.257C366.237 442.487 368.447 438.882 370.921 435.445C372.535 433.2 374.254 431.016 376.044 428.903C379.773 424.536 383.747 420.385 387.947 416.468L389.491 415.074L391.974 413.004Z" fill="#24175B"/>
<path fill-rule="evenodd" clip-rule="evenodd" d="M355.754 742.526L455.316 658.525C457.14 657.001 459.442 656.164 461.82 656.159C464.198 656.154 466.502 656.982 468.333 658.499L569.342 742.526C575.482 747.524 583.158 750.26 591.079 750.269H334.14C342.026 750.269 349.667 747.533 355.754 742.526ZM417.728 442.671L418.702 442.951C419.017 443.109 419.281 443.329 419.57 443.521L420.377 444.24C423.821 447.416 427.058 450.808 430.07 454.395C431.649 456.289 433.123 458.28 434.465 460.358C435.044 461.27 435.579 462.191 436.088 463.165C436.526 463.998 436.921 464.857 437.272 465.734C437.877 467.251 438.333 468.856 438.482 470.496L438.447 473.565C438.244 476.334 437.385 479.014 435.943 481.387C434.5 483.759 432.514 485.755 430.149 487.21C427.073 489.062 423.619 490.198 420.044 490.533L416.254 490.638L413.053 490.358C411.555 490.138 410.081 489.78 408.649 489.288C407.193 488.794 405.796 488.141 404.482 487.341L401.982 485.509C399.042 482.99 397.036 479.555 396.289 475.757C396.167 475.118 396.07 474.475 396 473.828L395.903 470.899C395.956 470.11 396.079 469.329 396.254 468.549C396.692 466.84 397.315 465.184 398.114 463.612C399.14 461.63 400.307 459.736 401.605 457.929C405.218 453.153 409.242 448.701 413.631 444.626L414.86 443.521C415.71 442.951 415.728 442.951 416.702 442.671H417.728ZM411.439 34.7437L411.833 34.7174V376.77L410.982 375.2C399.717 354.37 389.23 333.128 379.544 311.518C371.685 294.03 364.567 276.219 358.21 258.131C353.132 243.722 348.842 229.047 345.36 214.171C342.658 202.359 340.579 190.371 339.728 178.261C339.403 173.087 339.307 167.913 339.43 162.731C339.517 158.223 339.702 153.725 339.982 149.226C340.43 142.14 341.149 135.081 342.184 128.075C343.009 122.55 344.026 117.06 345.289 111.624C346.281 107.3 347.439 103.021 348.763 98.8029C350.675 92.7083 352.956 86.754 355.623 80.94C356.596 78.8442 357.649 76.7659 358.746 74.7226C365.351 62.4896 374.316 51.2211 386.053 43.6883C393.679 38.7236 402.384 35.6565 411.439 34.7437ZM455.807 35.6119L478.824 42.1713C489.529 46.0792 499.721 51.2705 509.175 57.6314C522.033 66.3038 533.115 77.3524 541.824 90.1828C546.931 97.8113 551.17 105.985 554.465 114.552C559.256 127.216 562.219 140.498 563.263 153.996C563.57 157.53 563.745 161.082 563.816 164.625C563.895 167.913 563.877 171.219 563.614 174.508C562.956 181.874 561.57 189.161 559.474 196.247C557.789 202.051 555.798 207.762 553.509 213.355C550.666 220.316 547.505 227.143 544.035 233.814C536.368 248.625 527.535 262.796 518.079 276.503C506.367 293.35 493.876 309.643 480.649 325.33C466.289 342.448 451.314 359.041 435.754 375.078C446.316 355.284 456.173 335.122 465.307 314.631C470.383 303.215 475.174 291.674 479.675 280.019C484.63 267.218 489.095 254.233 493.061 241.092C496.009 231.253 498.614 221.3 500.754 211.242C502.596 202.622 504.035 193.905 504.93 185.136C505.679 177.827 505.96 170.478 505.772 163.134C505.705 158.644 505.541 154.156 505.281 149.673C504.202 131.626 501.456 113.64 496.193 96.3388C494.198 89.7796 491.775 83.3584 488.939 77.1166C482.202 62.4545 472.798 48.7394 460.07 38.7249L455.807 35.6119Z" fill="white"/>
<defs>
<radialGradient id="paint0_radial_448_12" cx="0" cy="0" r="1" gradientUnits="userSpaceOnUse" gradientTransform="translate(443.018 423.791) scale(604.435 604.249)">
<stop stop-color="#BA7BF0"/>
<stop offset="0.45" stop-color="#996BEC"/>
<stop offset="1" stop-color="#5046E4"/>
</radialGradient>
</defs>
</svg>
