<?xml version="1.0" encoding="utf-8"?>
<!-- Generator: Adobe Illustrator 18.0.0, SVG Export Plug-In . SVG Version: 6.00 Build 0)  -->
<!DOCTYPE svg PUBLIC "-//W3C//DTD SVG 1.1//EN" "http://www.w3.org/Graphics/SVG/1.1/DTD/svg11.dtd">
<svg version="1.1" id="Layer_1" xmlns="http://www.w3.org/2000/svg" xmlns:xlink="http://www.w3.org/1999/xlink" x="0px" y="0px"
	 viewBox="59.4 80.5 381.6 347.3" width="331.475772469" height="301.681173424" enable-background="new 59.4 80.5 381.6 347.3" xml:space="preserve">
<circle fill="#FFFFFF" cx="294.9" cy="384.3" r="41.1"/>
<path fill="#FFFFFF" d="M322,368.1l-95.9,57.3L157,400l-31-31.9L136,230c-32.9-48.6-48-52.1-34-61.2c9.4-6.1,38.6-26.7,59.7-20.3
	c28.5,8.6,64.2,26.8,97.5,49.1c7.5,5,7.3-56.2,14.5-46.4c4.6,6.2,61.4-24.5,68.3-2c3.9,12.7,6.8,17.7,9.2,19.8
	C374.6,189.4,290.5,346.7,322,368.1z"/>
<path fill="#AA1416" d="M318.4,420.5c-3.6,0.3-7.3,0.7-10.9,0.9c-13,0.6-22.4-5.8-26.6-18.1c-0.7-2-1.5-4-2.5-5.9
	c-4.4-8-6.4-8.3-12.7-1.9c-8.5,8.6-17.7,16.1-29.8,19c-9.9,2.3-19.6,3.4-29.3-1.2c-11.6-5.5-20.2-14.4-27.8-24.4
	c-14.1-18.6-23.9-39.4-30.7-61.6c-8.4-27.4-12.7-55.2-6.2-83.6c4.7-20.4,15.1-37.2,33.9-47.8c15.7-8.8,32.7-11.8,50.5-11.2
	c4.1,0.1,8.3,0,13.7,0c-20.2-13.9-39.9-25.4-61.7-33c-17.2-6-34.7-10.4-53.2-7.7c-13.8,2-26.2,6.9-36.6,16.6
	c-14.6,13.6-21.8,30.8-25.9,50c-5.4,25.3-3.4,50.2,2.1,75.1c3.7,16.7,9.4,32.8,17,48.3c8.5,17.3,18.8,33.2,32,47.2
	c21.7,23,47.6,38.6,79.1,44.1c13.4,2.3,27.1,4.7,40.2-1.3c5.7-2.6,11-6.2,16.4-9.3c9.1-5.1,14.4-3.7,21.2,4.2
	c3,3.4,7.3,6.9,11.5,7.9C294.9,429.8,306.9,425.4,318.4,420.5z"/>
<path fill="#AA1416" d="M331.4,361.3c-9.2-5.2-10.9-12.5-10.7-21c0.7-25.8,9.4-48.5,26.1-68c12.4-14.5,24.2-29.2,32.6-46.5
	c12-24.5,6.4-55.1-13.8-73.7c-18-16.6-39.6-20.9-63.1-18.3c-20.7,2.3-36.3,12.6-45.6,31.4c-6.6,13.3-8.6,27.3-3.3,41.6
	c2.5,6.7,7.8,10.5,15,10.5c7.2,0,12.1-4.2,14.9-10.7c2.8-6.6,2-12.7-3.4-17.8c-1.8-1.7-3.6-3.5-5.3-5.3c-7.2-7.8-7.5-14.3-1.1-22.7
	c10.6-13.8,33.4-19.5,48.9-11.5c16.6,8.6,24.2,23.4,25.4,41.4c1.4,19.5-4,38-11.1,55.9c-11.5,29.2-20.4,59-25.5,90
	C309.5,348.9,318.4,361.2,331.4,361.3z"/>
<path fill="#13902C" d="M441,126.8c0-0.4-0.1-0.7-0.1-1.1c-7.3-0.4-14.7,0-21.8-1.2c-24.9-4-48.1-13.8-71.3-23.2
	c-22.1-9-44.1-18.8-68.3-20.5c-17.8-1.3-35,1.2-49.3,13.2c-9.3,7.8-13.4,18.2-12,30.5c1.3,11.7,6.3,22,13,31.4
	c3.9,5.4,8.3,10.4,13.1,16.5c1.1-3.6,1.8-5.6,2.4-7.7c6.3-20.1,20.2-31.7,40.2-37c23.5-6.2,47.2-3.5,70.9-1.8
	c21.2,1.5,42.4,2.8,63.7,3.6C428,129.6,434.5,127.7,441,126.8z"/>
<path fill="#AA1416" d="M314.4,367.9c-12.6,0-22.3,9.4-22.2,21.9c0,12.1,9.7,21.9,21.8,22c12.5,0.1,22.1-9.5,22.1-22.1
	C336,377.2,326.8,368,314.4,367.9z"/>
<path fill="#115495" d="M230.8,168.8c-5.9-8-14-17.2-20-27.5c-7.6-12.9-13.9-26.7-7.5-42.6c-7.8-1.8-8.4-8.6-10.6-14.8
	c-1.8,7.7-4.2,15.6-3.8,23.3c0.5,11.9,5.2,22.9,12.2,32.7C209.5,152.1,220.3,161.9,230.8,168.8z"/>
<path fill="#797979" d="M257.6,284.4c-4.5-4.4-9-8.6-15.7-8.1c-2,0.2-4.2,2.7-5.4,4.8c-0.5,0.9,1,3.8,2.4,4.7
	C242.9,288.6,253,287.8,257.6,284.4z"/>
<path fill="#797979" d="M259.2,284.5c0.5,0.4,1,0.9,1.4,1.3c6.7-0.3,12.1-3.3,15.9-8.8c1-1.4,0.7-5.3-0.5-6.3
	c-1.3-1.1-5.4-1.2-6.4-0.1C265.8,274.8,262.6,279.8,259.2,284.5z"/>
<path fill="#797979" d="M260.8,296.6c5.7,0.8,10.1,1.8,14.5,1.9c2.9,0,3.8-2.4,3.7-5.4c-0.2-3.1-1.9-3.9-4.5-4
	C269.3,289,265.4,291.5,260.8,296.6z"/>
<path fill="#797979" d="M259.2,296c-0.2-0.8-0.5-1.7-0.7-2.5c-3.7,0-7.6-0.6-11.2,0.1c-1.6,0.3-3.9,3.3-3.8,5.1
	c0.1,3.2,3.3,5,6.1,3.8C253.1,301,256,298.2,259.2,296z"/>
<path fill="#797979" d="M263.7,302.6c1.1,2.9,1.4,5.1,2.7,6.4c1.2,1.2,3.3,1.6,5.1,1.7c0.7,0,2.4-1.9,2.2-2.6
	c-0.3-1.4-1.4-3.1-2.6-3.7C269.1,303.4,266.8,303.3,263.7,302.6z"/>
<path fill="#797979" d="M260.9,302.5c-0.5-0.2-1-0.4-1.5-0.6c-1.6,2-3.4,3.9-4.5,6.1c-0.4,0.8,1.1,2.5,1.7,3.8
	c1.4-0.9,3.7-1.4,4.2-2.6C261.4,307.2,260.9,304.8,260.9,302.5z"/>
</svg>
