<svg width="1428" height="500" viewBox="0 0 1428 500" fill="none" xmlns="http://www.w3.org/2000/svg">
<g clip-path="url(#clip0_449_7)">
<path d="M1428 0L383.29 445.02C296.657 481.673 223.914 500 165.061 500C98.3141 500 49.9799 476.666 20.0587 429.997C1.18531 400.067 -4.37313 362.009 3.38336 315.824C11.1399 269.639 31.6589 220.472 64.9404 168.324C92.7902 126.076 138.374 70.5208 201.692 1.65767C180.201 35.5061 164.442 72.6703 155.049 111.652C138.385 182.772 153.346 235 199.931 268.338C222.142 283.902 252.684 291.684 291.559 291.684C327.031 291.08 362.289 286.045 396.513 276.696L1428 0Z" fill="#111111"/>
</g>
<defs>
<clipPath id="clip0_449_7">
<rect width="1428" height="500" fill="white"/>
</clipPath>
</defs>
</svg>
