<svg width="946" height="1000" viewBox="0 0 946 1000" fill="none" xmlns="http://www.w3.org/2000/svg">
<path fill-rule="evenodd" clip-rule="evenodd" d="M0 61.4643C0 95.3929 27.8088 122.911 62.0969 122.911H576.703C635.355 122.911 683.655 140.839 721.602 176.696C759.549 212.554 778.522 258.643 778.522 314.982C778.522 367.054 759.549 409.732 721.584 443.018C683.655 475.464 635.355 491.679 576.703 491.679H353.054C318.748 491.679 290.94 519.179 290.94 553.143C290.94 587.071 318.748 614.589 353.054 614.589H600.014L822.52 967.982C836.318 989.339 855.719 1000 880.726 1000C908.338 1000 927.74 989.339 938.95 967.982C950.159 945.804 947.999 922.321 932.488 897.571L734.542 582.571C788.018 558.679 830.285 523.679 861.324 477.589C892.381 430.643 907.91 376.446 907.91 314.982C907.91 252.661 893.667 198.036 865.215 151.089C837.62 104.125 798.817 67.4286 748.786 40.9643C698.755 13.6429 641.406 0 576.703 0H62.1147C27.8088 0 0 27.5 0 61.4643Z" fill="#575757"/>
</svg>
