<svg width="1000" height="1000" viewBox="0 0 1000 1000" fill="none" xmlns="http://www.w3.org/2000/svg">
<path d="M53.7187 316.781L17.5938 365.406H194.344L207.812 110.125L53.7187 316.781ZM774.031 89.25L522.844 62.5L787.875 350L774.031 89.25ZM219.125 426.375L197.25 383.406H19.3125L458.563 894.531L219.125 426.375ZM223.031 365.438H777.719L500.562 64.4687L223.031 365.438ZM803.719 383.188L542.188 894.531L981.25 383.406H803.719V383.188ZM811.313 134.781L792.969 110.156L794.719 143.937L806.625 365.438H983L811.313 134.781ZM221.687 182.625L212.688 349.813L477.937 62.5L226.781 89.25L221.687 182.625ZM783.594 383.188H217.187L500.594 937.5L783.594 383.188Z" fill="black"/>
</svg>
