<svg width="995" height="1000" viewBox="0 0 995 1000" fill="none" xmlns="http://www.w3.org/2000/svg">
<g clip-path="url(#clip0_446_7)">
<path d="M995 500C995 776.114 772.261 999.952 497.503 999.952C222.739 999.952 0.00336456 776.114 0.00336456 500C0.00336456 223.886 222.742 0.0484619 497.503 0.0484619C772.261 0.0484619 995 223.886 995 500Z" fill="white"/>
<path d="M493.346 177.787C510.859 187.88 529.44 200.868 543.578 214.636L538.026 220.214C510.117 217.248 480.726 220.953 454.268 221.361C451.321 218.385 445.378 213.911 450.91 210.172L493.346 177.787ZM986.782 524.369C987.153 536.96 988.337 547.775 983.424 560.666C932.442 575.167 898.953 521.198 849.487 529.335L855.079 557.309C900.843 558.814 929.431 602.692 976.707 600.806C969.991 614.216 979.704 649.557 949.948 635.432C919.056 628.008 896.719 600.806 862.873 600.806C858.789 608.3 861.378 618.681 860.658 627.553C896.368 633.151 922.053 663.329 957.749 668.9C954.39 681.166 951.066 694.901 941.005 702.378C911.965 695.312 889.277 669.234 858.357 669.98L852.855 695.667C882.232 696.422 901.224 722.413 927.628 730.218C928.354 741.05 918.671 750.735 913.085 760.403C889.644 753.367 871.77 733.228 844.981 734.716C844.61 724.624 850.6 713.17 848.339 702.378C818.256 711.327 798.083 683.38 775.787 666.612C775.148 611.755 717.382 575.762 714.332 524.372C713.743 514.122 715.305 503.187 719.978 491.429C738.963 447.544 732.999 390.562 712.185 349.643C705.853 338.872 694.651 330.374 684.205 324.04C699.484 356.425 718.112 394.686 708.813 434.488C707.736 465.221 689.594 494.743 689.39 524.372C689.319 534.936 691.577 545.5 697.655 556.168C721.851 599.746 765.394 641.003 749.021 695.66C744.519 712.448 731.12 725.426 727.768 742.512C756.082 765.957 782.854 792.38 820.423 793.864C833.809 785.317 826.374 747.411 853.912 764.897L894.12 785.006C891.193 795.764 882.179 805.408 874.017 812.819C858.762 805.398 843.881 796.496 824.859 797.222C819.253 803.175 814.426 809.853 814.851 818.391C828.237 820.594 840.519 826.239 851.698 834.068C846.503 845.247 836.385 852.25 827.083 860.814L795.896 849.665C790.688 857.116 779.871 864.941 783.667 873.121C790.708 876.131 798.511 880.204 803.689 885.424C789.925 900.302 772.475 909.877 755.684 919.973C741.221 872.71 693.564 839.576 697.658 784.919L695.444 782.705C684.245 795.299 687.985 815.431 688.707 831.774C702.113 866.004 734.09 892.447 738.94 929.988C733.341 939.653 720.721 941.579 711.031 945.666C712.161 877.983 609.465 826.647 675.321 758.182C697.283 724.657 734.083 692.664 721.045 646.507C707.659 601.94 660.31 574.327 660.728 524.372L660.805 520.473C671.585 468.378 704.348 412.941 677.549 357.519C670.077 335.227 653.389 309.895 630.695 300.578C664.534 339.3 677.947 402.484 658.59 454.593C648.83 475.323 635.397 500.013 634.053 524.379H633.969C633.25 537.103 635.846 549.761 644.064 561.756C669.752 603.441 714.382 649.223 688.711 703.542C659.691 747.05 609.087 791.306 637.351 848.615C657.811 882.836 689.47 916.986 680.924 959.059L647.442 970.212C669.765 891.738 560.353 845.629 606.16 767.125C634.434 725.092 685.011 685.647 656.379 629.857C639.264 595.288 603.902 574.829 605.013 531.632L606.234 524.376C617.757 463.111 664.343 405.113 631.765 339.644C623.205 320.308 606.103 300.601 587.118 289.432L585.974 290.575C623.945 327.405 635.494 388.004 615.021 436.715C605.471 465.294 584.506 493.763 580.248 524.386C578.218 538.829 579.927 553.794 588.269 569.558C612.452 607.846 654.864 648.46 628.4 697.961C600.531 738.843 554.004 778.628 572.588 831.797C593.062 878.314 635.799 922.631 612.726 980.308L578.167 988.11C605.692 931.901 564.423 876.121 540.244 827.373C510.832 757.426 603.431 723.935 604.919 659.991C604.568 618.714 560.677 595.278 551.409 557.339C532.41 541.314 512.722 563.706 490.014 559.549C473.253 562.917 447.505 536.478 437.497 565.141C425.583 607.157 371.286 638.043 395.145 687.881C417.853 732.168 472.494 764.55 454.241 821.865C437.899 875.395 383.91 926.367 417.395 988.11C403.637 983.655 377.956 992.186 378.327 970.215C357.128 895.447 447.532 851.882 419.609 777.15C406.614 731.375 347.408 706.09 360.442 651.032C370.079 605.712 420.944 574.03 413.809 524.386C413.175 520.022 412.149 515.724 410.745 511.544C391.76 457.974 353.027 404.387 376.113 341.865C382.451 324.01 395.111 308.761 406.236 292.799C369.396 312.506 350.813 354.185 351.575 396.585C349.97 442.694 384.037 482.192 388.883 524.386C390.79 541.414 388 558.854 376.113 577.35C351.946 610.133 320.341 644.702 334.831 687.871C348.608 731.416 402.928 757.798 399.583 808.408C399.212 868.282 329.63 905.556 349.351 972.516L314.718 961.283C300.968 901.781 364.212 871.342 364.938 816.287C373.889 752.982 293.128 729.493 297.974 667.776C297.626 620.888 338.908 591.192 357.141 551.751C360.265 542.153 361.309 533.087 360.89 524.389C358.656 480.781 319.354 446.691 325.877 397.659C328.071 361.575 340.35 329.943 363.801 302.808C331.446 315.8 318.08 353.037 309.143 384.292C293.633 434.411 330.657 479.49 334.366 524.389C336.012 544.22 331.168 563.933 312.507 584.089C285.702 615.668 258.519 655.52 277.872 697.967C298.366 744.802 362.75 781.257 334.824 839.669C319.588 876.509 283.106 904.389 284.605 947.903C274.938 943.81 264.911 939.73 256.696 932.306C256.696 876.89 335.547 842.275 297.978 783.869C294.649 795.389 293.934 811.053 291.328 824.072C278.29 857.942 250.394 885.05 239.955 920.066C222.498 913.331 204.245 899.179 189.726 884.297L209.838 871.994C207.604 864.537 201.66 858.219 196.459 851.896C183.4 850.063 174.824 858.631 164.054 861.988C154.752 853.785 145.774 846.344 138.359 836.298C145.035 817.29 197.201 833.008 170.774 801.75C152.932 790.601 135.024 806.532 119.4 813.969L98.2209 787.223C116.454 776.074 134.639 760.409 157.317 764.904C162.907 774.967 163.295 789.761 174.062 795.015C212.393 794.272 239.553 765.282 268.938 742.582C248.457 712.117 231.787 670.054 249.979 633.204C264.553 596.285 302.537 565.184 304.256 524.366C304.647 515.079 303.199 505.304 299.135 494.783C279.053 443.066 271.965 373.166 310.297 327.391C289.455 332.989 277.166 358.963 270.085 378.681C247.043 429.181 276.186 475.969 277.193 524.362C277.33 533.07 276.624 541.792 274.514 550.58C254.786 590.382 222.823 625.306 217.631 671.107C194.927 685.587 176.286 710.909 143.935 702.365C142.798 710.913 145.403 723.941 148.37 733.626C122.715 732.546 105.222 751.454 83.6241 760.379C72.1146 756.687 69.1209 741.816 64.6656 731.412C89.9492 722.875 108.189 697.533 137.218 697.931C140.583 688.584 135.332 680.019 133.85 671.1C97.7393 655.079 40.4992 750.317 35.686 667.743C71.77 665.512 94.8259 632.021 130.565 628.683L131.632 601.937C91.0764 597.843 64.9867 639.525 24.4473 635.418L15.5067 599.723C62.4012 602.652 90.3405 560.636 135.001 558.376C140.934 550.574 141.65 539.043 142.794 528.265C94.0466 521.911 60.5983 575.926 8.85714 559.523C8.85714 559.523 7.07427 537.043 6.10762 524.366H6.17795C5.9821 521.561 5.75347 518.758 5.4922 515.958C51.6274 533.853 92.1635 500.722 131.632 483.623C141.67 480.62 157.324 485.827 161.823 474.675C161.438 466.117 177.045 456.111 164.051 450.142C106.349 442.31 68.0171 511.895 8.8504 480.256L4.41183 471.307C16.7108 303.173 111.55 140.627 268.931 60.6377C332.667 24.2199 411.852 5.65979 491.71 4.99765C588.081 4.19505 685.469 29.4736 757.912 80.7429C828.257 123.883 895.545 194.983 932.064 267.159C966.994 330.401 983.066 401.361 987.869 476.902C926.832 523.011 885.885 433.465 823.731 453.506C827.076 463.194 828.932 473.223 836.04 481.406C891.126 481.015 929.057 538.685 986.722 515.955L986.782 524.369ZM285.665 317.302C246.959 292 197.89 315.827 161.82 329.608C158.471 295.739 144.714 264.882 116.029 242.563C113.246 241.175 109.399 238.266 105.934 238.049C103.86 237.918 101.887 238.758 100.355 241.406C113.356 321.378 61.3609 377.179 24.5143 437.842C36.7831 447.864 56.4941 446.37 71.3753 443.42C110.436 427.806 147.644 400.622 194.154 409.938C207.911 386.502 231.017 363.802 249.966 345.205C261.546 335.186 277.447 328.829 285.665 317.302ZM404.009 367.524C403.263 372.34 404.38 380.928 411.805 377.607C423.359 361.612 443.812 374.27 456.456 375.393V370.892C449.518 360 435.249 354.532 420.753 355.074C417.408 355.194 414.01 355.679 410.738 356.442C405.892 357.519 402.514 361.953 404.009 367.524ZM585.957 319.603C575.565 296.531 551.75 287.194 530.146 281.613C519.549 280.309 508.555 279.429 497.651 279.322C495.607 279.302 493.566 279.275 491.529 279.322C461.031 279.938 431.888 287.766 414.083 312.868C411.528 319.954 400.293 329.906 410.725 336.257C434.169 334.762 460.921 331.822 476.548 351.934C476.548 369.812 488.094 393.589 468.751 402.147C452.726 387.312 433.748 408.464 416.311 396.558C408.113 391.713 402.925 397.364 399.567 404.434C394.72 450.55 418.876 501.451 462.028 527.111C479.518 533.418 503.029 539.414 521.282 530.468C565.183 510.029 583.369 463.184 591.55 420.024C590.453 411.811 590.837 395.806 579.315 395.415C566.3 403.648 547.318 398.782 533.527 395.415C525.369 398.047 524.995 409.978 515.713 412.239L510.056 407.728C505.21 387.295 502.223 358.271 521.222 344.132C542.448 335.574 567.377 331.839 589.326 338.554C593.423 331.484 587.101 325.923 585.957 319.603ZM563.557 356.281C562.082 356.322 560.65 356.395 559.192 356.442C551.399 361.642 528.677 357.903 536.882 375.393C551.027 364.207 570.748 372.046 584.887 377.607C590.112 375.015 588.984 369.805 589.322 365.311C584.78 356.867 573.936 356.077 563.557 356.281ZM725.557 198.989C698.016 197.528 674.953 213.162 649.646 220.231C647.445 198.701 663.802 175.964 667.534 154.351C626.62 156.983 594.209 181.609 560.356 201.28C552.499 182.312 544.677 163.331 536.889 144.335L581.542 101.918L582.686 96.3266L522.369 92.9692C511.983 74.7703 507.886 52.8491 495.61 36.1083C485.562 55.083 478.813 75.1615 468.775 94.1128L408.534 97.4804V101.918L454.255 143.192C448.666 164.407 443.471 187.458 429.714 203.49C402.928 187.448 376.518 169.992 347.15 158.849C340.082 156.572 330.008 152.863 323.683 157.705C332.971 178.175 345.979 200.19 343.792 222.529C331.503 220.268 321.846 212.392 310.303 209.081C296.499 205.313 280.123 197.959 266.73 202.433C289.06 233.661 307.286 266.35 313.591 303.935C387.669 268.186 474.059 248.526 563.734 263.805C605.772 270.49 644.422 287.612 682.011 301.711C683.479 262.304 708.402 230.638 725.557 198.989ZM852.771 413.299C890.695 423.332 928.736 464.645 968.894 437.842C933.917 379.817 881.861 326.231 896.341 250.355C897.856 245.175 894.505 239.931 889.691 239.196C867.003 248.466 849.43 270.815 840.452 292.779C836.76 305.775 834.579 319.583 829.377 331.832C802.194 317.687 773.194 303.989 740.081 307.296C728.133 308.784 711.021 309.567 708.813 321.827C746.389 341.905 777.292 375.41 800.324 411.095C816.366 408.484 836.03 410.714 852.771 413.299ZM455.385 465.742L456.456 472.467C470.996 482.149 475.468 498.562 495.6 497.074C513.448 498.131 526.841 481.41 535.731 468.026C511.582 464.689 482.181 469.849 455.385 465.742ZM475.484 435.628C476.21 438.604 473.641 443.069 477.699 444.577C489.61 441.992 511.18 450.911 517.83 436.772C513.184 431.572 505.608 429.211 497.651 429.211C489.7 429.211 481.452 431.525 475.484 435.628Z" fill="#106E33"/>
<path opacity="0.99" d="M455.412 422.717H537.002V456.228H455.412V422.717Z" fill="white"/>
<path d="M470.48 440.638C481.023 443.133 483.632 446.868 491.961 447.915C500.825 447.758 499.547 445.958 514.99 440.628C516.01 440.27 517.402 438.029 515.676 436.314C506.079 426.796 499.447 433.598 493.439 433.779C485.455 433.863 477.976 426.95 470.183 435.939C468.855 437.762 468.162 439.558 470.48 440.638Z" fill="#106E33"/>
</g>
<defs>
<clipPath id="clip0_446_7">
<rect width="995" height="1000" fill="white"/>
</clipPath>
</defs>
</svg>
