<svg width="1000" height="867" viewBox="0 0 1000 867" fill="none" xmlns="http://www.w3.org/2000/svg">
<path d="M0 433.312C0 452.314 5.00171 471.316 14.6705 487.65L190.01 791.313C207.999 822.308 235.332 847.641 269.331 858.973C336.333 881.304 405.669 852.642 438.673 795.31L481.002 721.979L314.002 433.321L532.665 54.329C545.336 32.3334 562.34 14.3353 582.338 0H310.33C262.665 0 218.663 25.3331 195.002 66.6562L14.6705 379.002C5.00171 395.317 0 414.319 0 433.312Z" fill="#6363F1"/>
<path d="M1000 433.312C1000 414.319 995.007 395.317 985.339 378.983L807.666 71.3325C774.672 14.3353 705.335 -14.3352 638.333 7.66042C604.334 19.0022 577.001 44.3353 559.003 75.33L518.998 144.329L685.998 433.321L467.335 812.305C454.792 833.71 437.868 852.224 417.672 866.634H689.67C737.335 866.634 781.337 841.31 805.007 799.977L985.339 487.651C995.007 471.316 1000 452.314 1000 433.312Z" fill="#6363F1"/>
</svg>
