<svg width="164" height="100" viewBox="0 0 164 100" fill="none"
  xmlns="http://www.w3.org/2000/svg">
  <path d="M105.729 77.0612C109.172 68.9235 104.477 65.1676 99.7823 65.1676L53.4597 64.5416C52.2078 64.5416 52.2078 62.6637 53.7727 62.3507L100.721 61.7247C106.042 61.4117 112.302 57.0299 114.18 51.396C114.18 51.396 117.31 44.8232 116.997 43.8843C115.642 37.3468 112.17 31.4382 107.118 27.0731C102.066 22.7081 95.7162 20.13 89.0513 19.738C82.3864 19.3459 75.7781 21.1617 70.2493 24.9044C64.7205 28.6471 60.5796 34.1078 58.4676 40.4414C46.574 32.6166 34.0544 43.2583 36.8713 54.8389C21.8477 55.7779 16.5269 69.2365 18.0919 77.3742C18.0919 77.6872 18.4048 78.0002 19.0308 78.0002H104.79C105.103 78.0002 105.729 77.6872 105.729 77.0612Z" fill="white"/>
  <path d="M121.379 45.1359C120.127 45.1359 119.501 44.8229 119.188 45.4489L117.623 52.0216C116.058 57.0295 118.562 61.4114 123.883 61.7243L133.899 62.3503C135.151 62.3503 135.151 64.2283 133.586 64.5413L123.257 64.8542C111.989 66.1062 108.859 77.0609 108.859 77.0609C108.859 77.6868 108.859 77.9998 109.485 77.9998H144.853L145.792 77.3738C146.856 73.6029 147.032 69.6365 146.305 65.7862C145.579 61.9359 143.969 58.3064 141.604 55.1827C139.238 52.059 136.181 49.5262 132.672 47.783C129.163 46.0398 125.297 45.1337 121.379 45.1359Z" fill="white"/>
</svg>
