<svg xmlns="http://www.w3.org/2000/svg" width="132" height="22" fill="none"><path fill="#fff" d="M131.934 14.526c0 .745-.183 1.426-.549 2.044a4.166 4.166 0 0 1-1.476 1.467 3.895 3.895 0 0 1-2.035.55h-10.61V15.88h10.61c.372 0 .691-.133.956-.398s.397-.584.397-.956-.132-.69-.397-.956a1.304 1.304 0 0 0-.956-.397h-10.411v-2.707h10.411c.372 0 .691-.132.956-.397.265-.266.397-.587.397-.966 0-.372-.132-.69-.397-.956a1.304 1.304 0 0 0-.956-.397h-10.61V5.043h10.61c.744 0 1.422.183 2.035.549a4.14 4.14 0 0 1 1.476 1.476 3.89 3.89 0 0 1 .549 2.035c0 .524-.092 1.016-.275 1.476a4.119 4.119 0 0 1-.766 1.24 4 4 0 0 1 .766 1.23c.183.461.275.953.275 1.477zm-28.653-.454v4.514h-2.706V5.043h9.587c.833 0 1.59.205 2.271.615.682.404 1.224.95 1.628 1.637.41.682.615 1.436.615 2.262a4.34 4.34 0 0 1-.7 2.414 4.547 4.547 0 0 1-1.827 1.647l2.641 4.921h-3.076l-2.394-4.467h-6.039zm0-6.322v3.615h6.881c.498 0 .924-.177 1.278-.53.353-.353.53-.78.53-1.278s-.177-.924-.53-1.277a1.744 1.744 0 0 0-1.278-.53h-6.881zM85.454 18.586h-2.707V5.043h14.897V7.75h-12.19v2.716h9.483v2.707h-9.483v2.707h12.19v2.706h-12.19zm-11.928 0H70.82v-5.29L64.1 5.043h3.492l4.647 5.707 4.647-5.707h3.493l-6.853 8.423v5.12zm-19.903-2.252-1.212 2.252h-3.076l7.288-13.543h2.839l7.287 13.543h-3.075l-1.212-2.252h-8.84zm4.42-8.206-2.963 5.49h5.925l-2.963-5.49zM33 5.043h2.707V15.88h11.735l-1.488 2.706H33V5.043zM0 14.034a.76.76 0 0 1 .759-.759h8.724V22H.759A.759.759 0 0 1 0 21.24v-7.206z"/><path fill="#fff" d="M9.483 13.275H21.24c.42 0 .759.34.759.759v7.207a.76.76 0 0 1-.759.759h-2.847c-.417 0-.816-.172-1.102-.475l-7.81-8.25z"/><path fill="#fff" d="M0 .759C0 .339.34 0 .759 0h7.965c.42 0 .759.34.759.759v12.517L.435 4.063A1.517 1.517 0 0 1 0 3V.76z"/></svg>