<svg width="509" height="142" viewBox="0 0 509 142" fill="none"
  xmlns="http://www.w3.org/2000/svg">
  <path d="M91.991 104.699C93.567 110.66 96.11 112.965 100.604 112.965C105.263 112.965 107.706 110.166 107.706 104.699V3.2H136.89V104.699C136.89 119.006 135.034 125.205 127.78 132.461C122.552 137.69 112.909 141.732 100.733 141.732C90.896 141.732 81.483 138.476 75.48 132.462C70.217 127.189 67.326 121.773 62.808 104.698L44.9 37.033C43.323 31.072 40.781 28.768 36.287 28.768C31.627 28.768 29.184 31.566 29.184 37.033V138.533H0V37.033C0 22.727 1.857 16.527 9.111 9.271C14.337 4.044 23.981 0 36.158 0C45.995 0 55.408 3.257 61.411 9.27C66.674 14.543 69.565 19.959 74.083 37.034L91.991 104.699Z" fill="white"/>
  <path d="M478.037 138.533L444.333 33.096C443.961 31.932 443.61 30.944 443.07 30.285C442.144 29.158 440.863 28.566 439.139 28.566C437.416 28.566 436.135 29.158 435.208 30.285C434.669 30.943 434.317 31.931 433.946 33.096L400.243 138.533H370.076L406.891 23.356C408.809 17.356 411.551 12.262 415.03 8.868C421.001 3.047 428.037 0 439.14 0C450.243 0 457.28 3.047 463.249 8.867C466.728 12.262 469.47 17.355 471.389 23.355L508.203 138.532H478.037V138.533Z" fill="white"/>
  <path d="M328.878 138.533C347.998 138.533 357.324 134.471 364.692 127.144C372.845 119.039 376.745 110.171 376.745 96.931C376.745 85.232 372.462 74.396 365.941 67.912C357.415 59.433 346.825 56.761 329.557 56.761L305.37 56.76C296.128 56.76 292.445 55.643 289.531 52.78C287.53 50.816 286.592 47.895 286.592 44.452C286.592 40.893 287.449 37.378 289.895 34.977C292.066 32.846 295.025 31.868 300.711 31.868H370.614V3.2H306.05C286.93 3.2 277.605 7.263 270.236 14.589C262.084 22.694 258.183 31.561 258.183 44.801C258.183 56.502 262.466 67.337 268.987 73.82C277.514 82.299 288.103 84.972 305.371 84.972L329.559 84.974C338.801 84.974 342.484 86.089 345.398 88.953C347.399 90.918 348.337 93.838 348.337 97.281C348.337 100.84 347.48 104.355 345.035 106.756C342.863 108.887 339.904 109.865 334.218 109.865H262.124L234.473 23.356C232.555 17.356 229.813 12.262 226.334 8.868C220.363 3.047 213.327 0 202.224 0C191.121 0 184.084 3.047 178.116 8.867C174.636 12.262 171.895 17.355 169.977 23.355L133.162 138.532H163.328L197.032 33.095C197.404 31.931 197.755 30.943 198.295 30.284C199.221 29.157 200.503 28.565 202.226 28.565C203.949 28.565 205.23 29.157 206.157 30.284C206.697 30.942 207.048 31.93 207.419 33.095L241.123 138.532H328.878V138.533Z" fill="white"/>
</svg>
