<svg width="64" height="72" viewBox="0 0 64 72" fill="none"
  xmlns="http://www.w3.org/2000/svg">
  <path fill-rule="evenodd" clip-rule="evenodd" d="M52.6296 50.0071C53.0942 55.9749 53.0942 58.7724 53.0942 61.8261H39.2864C39.2864 61.161 39.2983 60.5525 39.3103 59.9355C39.3477 58.0175 39.3866 56.0174 39.0759 51.9783C38.6652 46.0649 36.1187 44.7509 31.4365 44.7509H27.2882H9.71973V33.9919H32.0937C38.008 33.9919 40.9652 32.1927 40.9652 27.4292C40.9652 23.2406 38.008 20.7023 32.0937 20.7023H9.71973V10.1743H34.558C47.9474 10.1743 54.6011 16.4983 54.6011 26.6002C54.6011 34.1561 49.9189 39.0839 43.5938 39.9052C48.9332 40.9729 52.0547 44.0117 52.6296 50.0071Z" fill="white"/>
  <path d="M9.71973 61.8261V53.8057H24.3195C26.7582 53.8057 27.2877 55.6143 27.2877 56.693V61.8261H9.71973Z" fill="white"/>
</svg>
