<svg width="1024" height="1024" viewBox="0 0 1024 1024" fill="none"
  xmlns="http://www.w3.org/2000/svg">
  <path d="M512.609 973.889C258.918 973.889 51.0749 765.027 51.0749 511.336C51.0749 454.281 61.2632 400.283 80.6212 349.341L350.613 892.382C353.67 899.514 358.764 905.627 366.915 905.627C375.066 905.627 380.16 899.514 383.216 892.382L507.515 614.239C508.533 611.183 510.571 608.126 513.628 608.126C516.684 608.126 517.703 611.183 519.741 614.239L644.039 892.382C647.096 899.514 652.19 905.627 660.34 905.627C668.491 905.627 673.585 899.514 676.642 892.382L946.634 349.341C965.992 400.283 976.18 454.281 976.18 511.336C974.143 765.027 766.3 973.889 512.609 973.889ZM512.609 406.396C509.552 406.396 508.534 403.339 506.496 400.283L361.821 74.2545C408.687 56.9343 459.629 47.7647 512.609 47.7647C565.588 47.7647 616.53 56.9343 663.397 74.2545L518.722 400.283C516.684 404.358 515.665 406.396 512.609 406.396ZM364.877 741.594C361.821 741.594 360.802 738.537 358.764 735.481L124.431 262.74C166.204 198.553 222.24 144.554 290.502 106.857L459.629 482.809C461.667 488.922 466.761 490.96 471.855 490.96H553.362C559.475 490.96 563.551 489.941 566.607 482.809L735.735 106.857C802.978 144.554 860.033 198.553 901.805 262.74L665.435 735.481C664.416 738.537 662.378 741.594 659.322 741.594C656.265 741.594 655.246 738.537 653.209 735.481L564.57 533.751C561.513 526.619 557.438 525.6 551.325 525.6H469.818C463.705 525.6 459.629 526.619 456.573 533.751L370.99 735.481C369.971 738.537 367.934 741.594 364.877 741.594ZM512.609 1020.76C794.827 1020.76 1022.03 793.555 1022.03 511.336C1022.03 229.118 794.827 1.91699 512.609 1.91699C230.39 1.91699 3.18945 229.118 3.18945 511.336C3.18945 793.555 230.39 1020.76 512.609 1020.76Z" fill="white"/>
</svg>
